<svg width="225" height="90" viewBox="0 0 225 90" fill="none" xmlns="http://www.w3.org/2000/svg"><g clip-path="url(#a)"><path d="M92 45c0 24.852-20.148 45-45 45S2 69.852 2 45C2 20.15 22.148 0 47 0s45 20.149 45 45z" fill="#00C2CA"/><path d="M65.298 45.608c-.682-.719-1.212-1.82-1.212-2.88 0-.567.188-1.25.682-1.25.417 0 .948.606.948 1.97 0 .721-.152 1.441-.418 2.16zM77.31 52.47c-.065-.53-.03-1.176.142-1.932.426-1.783.516-2.274.487-2.502-.056-.455-.382-.644-.76-.644-.796 0-1.873.795-2.155 1.893-.44 1.668-1.627 2.805-2.422 2.805-.987 0-1.494-1.06-1.63-2.159-.335-2.73 1.41-6.102 3.95-6.102.758 0 1.553.302 1.646 1.061.144 1.174-1.1.909-1.04 1.402.06.494.912.644 1.482.644.568 0 2.227-.379 1.988-2.312-.184-1.515-1.788-2.236-3.647-2.236-2.19 0-4.053 1.11-5.323 2.644-.166.098-.336.255-.522.465-.417.49-1.174.947-2.16.947-.114 0-.379-.039-.379-.039.643-1.25 1.1-2.539 1.1-3.676 0-1.82-1.137-2.728-2.39-2.728-1.59 0-3.22 1.402-3.22 4.13 0 1.631.645 2.957 1.782 3.676-1.29 2.124-3.07 3.868-3.335 3.868-.152 0-.19-.153-.228-.306-.19-.718-.378-2.12-.378-2.992 0-1.554.302-3.109.872-4.776.075-.19.112-.378.112-.53 0-.455-.303-.683-.719-.683-.835 0-2.085.947-2.39 1.932-.302.948-.414 2.237-.414 3.828 0 .29.005.576.015.86-1.545 2.037-3.458 2.772-4.054 2.772-.745 0-.888-.615-.801-1.02.4-1.912 1.008-4.133 1.548-5.611.25-.72.361-1.363.317-1.741-.084-.683-.583-1.024-1.226-1.024-1.517 0-4.05 1.59-5.678 3.752l.517-2.34a1.78 1.78 0 0 0 .044-.57c-.055-.453-.344-.642-.723-.642-1.857 0-2.186.939-2.355 1.851-.04.22-.58 2.998-1.018 5.25-1.392 1.244-2.896 2.056-3.306 2.056-.515 0-.686-.408-.7-.704-.017-.34.363-1.978.454-2.471.047-.228.061-.417.043-.57-.051-.415-.339-.604-.757-.604-.796 0-1.877.757-2.155 1.893-.439 1.668-1.589 2.805-2.385 2.805-.984 0-1.53-1.06-1.66-2.122-.29-2.35 1.217-6.14 3.945-6.14.758 0 1.548.266 1.64 1.022.151 1.214-1.062.912-.996 1.442.06.494.912.644 1.443.644.606 0 2.226-.379 1.994-2.274-.185-1.515-1.758-2.274-3.651-2.274-4.373 0-7.308 4.274-7.04 7.69-1.136 1.32-2.263 2.132-4.264 3.148-1.143.57-2.428.911-3.64.911-3.637 0-5.412-3.334-5.766-6.214-.906-7.392 5.615-17.548 10.163-17.548 1.06 0 2.006.917 2.183 2.35.274 2.227.228 3.806-2.085 5.73-.252.211-.326.551-.195.753.195.302.818.33 2.075-.301 2.46-1.237 3.347-3.146 3.075-5.355-.3-2.451-2.45-4.503-5.331-4.503-1.402 0-2.942.415-4.317 1.25-5.998 3.64-9.867 11.938-9.09 18.267.248 2.009 1.086 4.207 2.67 5.684 1.069.985 2.999 2.198 5.272 2.198 2.464 0 4.546-.945 6.409-2.121 1.272-.814 2.321-1.8 3.218-2.804.625 1.33 1.924 2.234 3.283 2.234 1.06 0 2.055-.53 2.809-1.516.223.91.867 1.516 2.004 1.516.833 0 2.615-.83 4.266-2.06l-.17.88a1.77 1.77 0 0 0-.046.57c.051.417.34.606.72.606.796 0 1.953-.758 2.187-1.932l.364-1.668c.465-2.084 3.526-5.23 4.398-5.23.115 0 .2.076.218.226.065.532-.97 2.273-1.423 5.08a5.137 5.137 0 0 0-.05 1.439c.153 1.25.9 2.085 2.264 2.085 1.183 0 3.701-1.003 5.497-2.968.138 1.1.37 2.044.718 2.63.15.268.492.342.796.342.378 0 .908-.15 1.478-.454 1.363-.757 3.146-2.463 4.85-4.926.228.037.417.037.645.037.685 0 1.449-.246 2.159-.685-.269.858-.373 1.73-.273 2.541.243 1.971 1.945 3.487 3.688 3.487 1.022 0 2.02-.53 2.773-1.478.231 1.252 1.039 2.578 2.992 3.374.124.076.275.076.388.076.38 0 .613-.265.576-.57-.015-.113-.113-.302-.284-.454-.469-.417-.974-1.137-1.108-2.235z" fill="#fff"/><path d="M129.111 37.03c.39-.918.116-1.54-.184-1.899-.562-.674-1.695-.981-2.754-.744-.997.222-1.705.871-1.943 1.782-.816 3.127-.964 5.054-1.154 8.19-.006.086-.01.172-.014.257l-.005.093c-.297 3.862-.124 8.416.371 9.744.216.58.732.82 1.453.673 1.012-.203 1.538-.713 1.483-1.436-.028-.387-.003-2.863.272-5.79 1.3-5.761 5.556-6.775 7.977-6.867 1.481-.057 3.358.595 3.76 2.617.618 3.105-1.499 6.818-4.925 8.638-1.452.787-2.59 1.072-4.505 1.129a.79.79 0 0 0-.705.465l-.005.014a.986.986 0 0 0 .062.82c.385.685 1.592.97 2.39 1.16.12.027.228.054.335.08.496.08.996.12 1.497.12 2.208 0 4.418-.774 6.354-2.25 2.669-2.034 4.47-5.176 4.82-8.405.333-3.664-.908-6.51-3.494-8.01-3.011-1.75-7.369-1.296-10.846 1.131a11.9 11.9 0 0 0-1.07.881c.085-.25.163-.494.239-.733a18.05 18.05 0 0 1 .591-1.66zm70.602 10.437c-.207.584-1.339 1.142-2.842 1.41.17-.998.555-1.703 1.174-2.153l.014-.01c.099-.095.31-.145.55-.145.288 0 .62.072.86.229.26.17.342.395.244.67zm-25.022-19.566c.713.568 1.823.749 2.97.485l.04-.01c2.388-.55 5.208-1.18 8.017-1.69a174.632 174.632 0 0 1 8.39-1.37c-3.916 2.34-7.335 5.275-9.916 8.518-2.998 3.765-4.874 7.883-5.579 12.24-.49 3.442-.031 6.605 1.328 9.148 1.449 2.713 3.919 4.67 7.142 5.66a21.12 21.12 0 0 0 6.149.907c5.462 0 10.826-2.068 14.471-5.817 2.593-2.575 3.896-6.74 3.32-10.613-.477-3.2-2.161-5.716-4.747-7.083-3.818-1.88-8.772-1.722-12.62.403-3.13 1.728-5.535 4.895-5.986 7.88-.247 1.639.084 3 .986 4.046 1.12 1.301 3.056 2.025 5.459 2.044.122.513.279 1.021.431 1.514l.056.183c.13.421.595.633 1.186.54.553-.085 1.11-.449 1.104-.972.015-.467-.009-.98-.043-1.548 2.021-.431 3.74-1.291 4.85-2.426.858-.833 1.162-1.876.856-2.935-.389-1.35-1.701-2.48-3.262-2.811-2.674-.567-4.621.226-5.206 2.122-.237.766-.366 1.641-.387 2.603-.705-.137-1.733-.485-1.816-1.36-.223-2.351 1.261-4.722 3.782-6.043 2.102-1.124 5.515-1.118 7.771.014 1.029.517 2.311 1.51 2.583 3.317.535 2.91-.302 5.779-2.186 7.49-2.593 2.422-7.192 3.909-11.442 3.702-3.182-.155-5.83-1.258-7.448-3.094-1.173-1.605-1.517-3.948-1.054-7.161.628-4.352 3.356-9.063 7.682-13.266 3.921-3.808 8.776-6.864 13.325-8.386.4-.032.801-.062 1.2-.09l.486-.034c.513-.034 1.043-.07 1.562-.097.341-.02.681-.038 1.019-.052l1.063-.043c1.024-.044 1.82-.846 1.981-1.994.088-.629-.024-1.133-.333-1.5-.34-.403-.92-.628-1.676-.65l-1.082-.03a73.45 73.45 0 0 0-1.064-.016 99.093 99.093 0 0 0-1.631-.007h-.489a182.17 182.17 0 0 0-12.666.508c-3.121.235-5.877.5-8.423.81-2.966.338-5.913.794-8.404 1.196a2.88 2.88 0 0 0-.208.04c-1.659.382-2.397 1.55-2.395 3.79.001.825.296 1.494.854 1.938z" fill="#00C2CA"/><path d="M159.057 20.145l-.675-.074a36.323 36.323 0 0 0-.664-.065l-.132-.013a61.3 61.3 0 0 0-1.186-.103c-.857-.073-1.727-.128-2.568-.183l-.065-.003a134.11 134.11 0 0 0-1.725-.09l-.91-.045-2.635-.082a141.5 141.5 0 0 0-10.561.166l-1.982.11c-.144.007-.287.02-.431.032l-.232.02-2.639.218c-.331.023-.665.062-.987.098l-.339.038-2.641.3c-.288.033-.577.077-.858.12l-.464.067-2.642.39-3.951.732-3.929.902a3.88 3.88 0 0 0-.215.057c-1.783.543-2.13 1.857-2.126 3.94.002.746.3 1.36.863 1.776.778.574 2.003.725 3.122.384l3.722-1.134 3.659-.947 2.472-.544.444-.098c.259-.058.527-.118.792-.167l2.498-.463.327-.06c.301-.056.612-.115.922-.158l2.517-.387.225-.036c.135-.021.268-.041.402-.058l1.899-.24c3.308-.407 6.607-.696 9.807-.858.235 1.226.477 2.493.695 3.74 1.166 7.292 2.121 15.02 1.229 22.126-.496 3.947-1.547 7.367-3.124 10.164-1.802 3.197-4.36 5.704-7.598 7.453-5.604 2.847-12.18 2.693-17.903 2.325l-.01-.001h-.009c-.4.028-.692.284-.801.704-.133.51.04 1.088.394 1.318 1.671 1.087 8.132 1.51 9.043 1.51.01 0 .02 0 .029-.002.469.019.932.028 1.391.028 7.855 0 14.02-2.661 18.337-7.92 3.842-4.682 6.119-11.235 6.765-19.477.537-6.838-.139-14.695-1.903-22.141a75.84 75.84 0 0 1 1.523.006c.375.001.755.01 1.123.018l.151.003c.212.005.423.01.632.019l.676.026c.84.028 1.573-.598 1.772-1.524.111-.516.048-.942-.188-1.268-.258-.358-.721-.581-1.338-.649zm61.872 25.903a19.645 19.645 0 0 1-2.001 7.458c-.489-1.923-.753-3.672-.827-5.478-.169-4.178.459-5.205 1.017-5.332.352-.08.671 0 .952.24.611.52.948 1.742.859 3.112zm3.745 20.678c-1.217-1.59-2.293-3.539-3.289-5.956a170.04 170.04 0 0 1-.394-1.037 23.865 23.865 0 0 0 2.785-6.55c.856-3.474 1.921-7.799-.549-11.467-.945-1.38-2.429-2.044-3.969-1.778-1.777.309-3.204 1.726-3.724 3.7-1.181 4.489-1.075 9.773.291 14.51-3.941 4.526-9.774 7.66-16.021 8.601-3.911.758-8.293.765-12.339.02-4.391-.81-8.259-2.458-11.183-4.765-3.952-3.116-6.066-7.24-6.285-12.263a.78.78 0 0 0-.562-.691.684.684 0 0 0-.59.11c-.644.464-.813 2.008-.933 3.55-.02.27-.039.505-.061.662-.192 3.94 1.245 8.018 3.947 11.194 2.667 2.925 6.021 5.186 9.969 6.719 3.659 1.42 7.81 2.17 12.009 2.17h.044c9.514-.011 18.578-3.718 24.289-9.922 1.311 2.219 2.924 3.972 4.794 5.216.605.401 1.263.156 1.648-.266.394-.43.6-1.165.123-1.757z" fill="#00C2CA"/></g><defs><clipPath id="a"><path fill="#fff" d="M0 0h225v90H0z"/></clipPath></defs></svg>